<?xml version="1.0" encoding="iso-8859-1"?>
<!-- Generator: Adobe Illustrator 19.0.0, SVG Export Plug-In . SVG Version: 6.00 Build 0)  -->
<svg version="1.1" id="Capa_1" xmlns="http://www.w3.org/2000/svg" xmlns:xlink="http://www.w3.org/1999/xlink" x="0px" y="0px"
	 viewBox="0 0 201.392 201.392" style="enable-background:new 0 0 201.392 201.392;" xml:space="preserve">
<path style="fill:#26BBEC;" d="M156.552,59.273c0-32.951-28.534-59.237-62.239-55.499C68.739,6.61,48.066,27.269,45.204,52.84
	c-2.161,19.301,5.543,36.864,18.691,48.381c7.509,6.576,11.979,15.947,11.979,25.928v12.803h49.649v-12.803
	c0-9.972,4.454-19.343,11.959-25.911C149.164,91.013,156.552,76.019,156.552,59.273z"/>
<path d="M125.521,143.365H75.873c-1.884,0-3.413-1.529-3.413-3.413v-12.803c0-8.827-3.942-17.341-10.813-23.361
	C47.057,91.012,39.642,71.824,41.811,52.46c3.04-27.165,24.962-49.067,52.125-52.079c17.125-1.896,33.555,3.33,46.278,14.72
	c12.551,11.237,19.75,27.336,19.75,44.17c0,17.048-7.374,33.28-20.234,44.532c-6.861,6.004-10.795,14.512-10.795,23.342v12.803
	C128.935,141.836,127.405,143.365,125.521,143.365z M79.286,136.539h42.822v-9.39c0-10.8,4.784-21.18,13.124-28.479
	c11.378-9.957,17.905-24.317,17.905-39.395c0-14.896-6.369-29.141-17.476-39.084c-11.259-10.08-25.813-14.705-40.972-13.022
	C70.667,9.832,51.281,29.2,48.593,53.223c-1.947,17.399,4.449,33.959,17.548,45.433c8.354,7.316,13.143,17.703,13.143,28.496v9.387
	H79.286z"/>
<path style="fill:#606060;" d="M121.179,167.259H80.214c-5.654,0-10.237-4.584-10.237-10.237v-17.07h61.44v17.07
	C131.416,162.675,126.834,167.259,121.179,167.259z"/>
<path d="M121.179,170.672H80.214c-7.528,0-13.652-6.124-13.652-13.652v-17.068c0-1.884,1.529-3.413,3.413-3.413h61.44
	c1.884,0,3.413,1.529,3.413,3.413v17.068C134.829,164.549,128.706,170.672,121.179,170.672z M73.389,143.365v13.655
	c0,3.763,3.062,6.825,6.825,6.825h40.965c3.761,0,6.823-3.062,6.823-6.825v-13.655H73.389z"/>
<path style="fill:#FBAD4A;" d="M64.564,47.789c-0.922,3.256-1.413,6.692-1.413,10.242"/>
<path d="M63.149,61.445c-1.884,0-3.413-1.529-3.413-3.413c0-3.794,0.521-7.554,1.543-11.172c0.515-1.814,2.401-2.867,4.215-2.353
	c1.814,0.514,2.869,2.4,2.355,4.214c-0.853,3.014-1.287,6.146-1.287,9.312C66.563,59.916,65.034,61.445,63.149,61.445z"/>
<path d="M68.353,42.358c-0.59,0-1.19-0.154-1.736-0.476c-1.621-0.959-2.161-3.053-1.2-4.675
	c7.349-12.419,20.866-20.135,35.279-20.135c1.884,0,3.413,1.529,3.413,3.413s-1.529,3.413-3.413,3.413
	c-12.012,0-23.279,6.432-29.402,16.783C70.655,41.759,69.519,42.358,68.353,42.358z"/>
<polygon style="fill:#606060;" points="117.763,197.979 83.629,197.979 80.216,187.739 121.176,187.739 "/>
<path d="M117.763,201.392H83.629c-1.469,0-2.773-0.94-3.238-2.335l-3.413-10.24c-0.346-1.041-0.172-2.185,0.469-3.075
	s1.671-1.418,2.768-1.418h40.96c1.097,0,2.127,0.527,2.768,1.418c0.642,0.891,0.817,2.034,0.469,3.075L121,199.057
	C120.536,200.452,119.232,201.392,117.763,201.392z M86.089,194.565h29.213l1.138-3.413H84.95L86.089,194.565z"/>
<rect x="80.216" y="177.495" style="fill:#606060;" width="40.96" height="10.24"/>
<path d="M121.176,191.152h-40.96c-1.884,0-3.413-1.529-3.413-3.413v-10.24c0-1.884,1.529-3.413,3.413-3.413h40.96
	c1.884,0,3.413,1.529,3.413,3.413v10.24C124.589,189.623,123.06,191.152,121.176,191.152z M83.629,184.325h34.133v-3.413H83.629
	V184.325z"/>
<rect x="80.216" y="167.255" style="fill:#606060;" width="40.96" height="10.24"/>
<path d="M121.176,180.912h-40.96c-1.884,0-3.413-1.529-3.413-3.413v-10.24c0-1.884,1.529-3.413,3.413-3.413h40.96
	c1.884,0,3.413,1.529,3.413,3.413v10.24C124.589,179.383,123.06,180.912,121.176,180.912z M83.629,174.085h34.133v-3.413H83.629
	V174.085z"/>
<path d="M189.443,61.445h-17.067c-1.884,0-3.413-1.529-3.413-3.413s1.529-3.413,3.413-3.413h17.067c1.884,0,3.413,1.529,3.413,3.413
	S191.327,61.445,189.443,61.445z"/>
<path d="M158.726,20.485c-1.038,0-2.063-0.471-2.734-1.365c-1.132-1.509-0.826-3.649,0.681-4.779l13.653-10.24
	c1.514-1.13,3.651-0.824,4.779,0.683c1.132,1.509,0.826,3.649-0.681,4.779l-13.653,10.24
	C160.156,20.262,159.438,20.485,158.726,20.485z"/>
<path d="M29.016,61.445H11.949c-1.884,0-3.413-1.529-3.413-3.413s1.529-3.413,3.413-3.413h17.067c1.884,0,3.413,1.529,3.413,3.413
	S30.9,61.445,29.016,61.445z"/>
<path d="M42.666,20.485c-0.712,0-1.43-0.222-2.045-0.683L26.968,9.563c-1.509-1.132-1.812-3.272-0.681-4.779
	c1.13-1.505,3.267-1.812,4.779-0.683l13.653,10.24c1.509,1.132,1.812,3.272,0.681,4.779C44.729,20.013,43.704,20.485,42.666,20.485z
	"/>
<g>
</g>
<g>
</g>
<g>
</g>
<g>
</g>
<g>
</g>
<g>
</g>
<g>
</g>
<g>
</g>
<g>
</g>
<g>
</g>
<g>
</g>
<g>
</g>
<g>
</g>
<g>
</g>
<g>
</g>
</svg>
